<svg id="Layer_1" data-name="Layer 1" xmlns="http://www.w3.org/2000/svg" xmlns:xlink="http://www.w3.org/1999/xlink" viewBox="0 0 80 40">
  <defs>
    <style>
      .cls-1 {
        fill: #2196f3;
      }

      .cls-2 {
        fill: #f44336;
      }

      .cls-3 {
        fill: url(#linear-gradient);
      }

      .cls-4 {
        fill: url(#linear-gradient-2);
      }

      .cls-5 {
        fill: #fff;
      }
    </style>
    <linearGradient id="linear-gradient" x1="10.98" y1="8.69" x2="56.44" y2="54.15" gradientUnits="userSpaceOnUse">
      <stop offset="0.4" stop-color="#2196f3"/>
      <stop offset="0.5" stop-color="#ffd54f"/>
      <stop offset="0.6" stop-color="#f44336"/>
    </linearGradient>
    <linearGradient id="linear-gradient-2" x1="37.19" y1="34.9" x2="37.21" y2="34.92" xlink:href="#linear-gradient"/>
  </defs>
  <title>image_divider_icons</title>
  <g>
    <path class="cls-1" d="M47.84,3.05l-1.77.35c-.45.1-.89.27-1.33.4h-.12a6.48,6.48,0,0,1-2-.15,7.93,7.93,0,0,1-1.91-.57c-1.15-.5-2.2-1.2-3.38-1.68A11.84,11.84,0,0,0,33.57.89a19.9,19.9,0,0,0-3.76.38A5.6,5.6,0,0,0,27,2.61a15.18,15.18,0,0,1-1.42,1.12,12.68,12.68,0,0,1-1.77.88,30.7,30.7,0,0,0-3.44,1.95,12.2,12.2,0,0,0-2.62,2c-.31-.09-.63-.12-.93-.23s-.72-.43-1.11-.55a.29.29,0,0,0-.42-.15,2.06,2.06,0,0,0-.52.58c-.24.3-.5.57-.72.88a5.27,5.27,0,0,0-.37.59,2,2,0,0,0-.24.26c-.05.06-.15.22-.26.37l-.2-.13a2.54,2.54,0,0,1-1-.66,2.26,2.26,0,0,0-.48-.6h0A.3.3,0,0,0,11,8.73l0,0a1.73,1.73,0,0,0-.17.21h0a1.6,1.6,0,0,0-.54,1c-.11.53,0,1.06-.12,1.56-.07.16-.13.32-.19.49a.21.21,0,0,0,0,.11,1.61,1.61,0,0,0-.19.31,4.68,4.68,0,0,1-.27.4.27.27,0,0,0-.08.07.28.28,0,0,0-.08.15q-.15.2-.3.36a2.13,2.13,0,0,0-.49.88,1.75,1.75,0,0,0-.16.27A2.3,2.3,0,0,0,8,15.77a3.84,3.84,0,0,0,0,1.47c0,.35.06.71.07,1.06a1.38,1.38,0,0,1-.27.44,9,9,0,0,0-.88,1,9.37,9.37,0,0,1-1,1c-.21.2-.49.36-.6.63l-.09.06-.11.07s0,0,0,0l-.06,0-.1,0-.08.05a.64.64,0,0,0-.29.38.53.53,0,0,0,0,.39v0a1.21,1.21,0,0,0,.26.7s1.7,1.25,1.8,1.27a4.36,4.36,0,0,0,.85.23,1,1,0,0,1,.17,0l.09,0,.62.18a5.13,5.13,0,0,1,.08-.61s1.09-.71,1.09-.7a12.42,12.42,0,0,1,1.82-1,.3.3,0,0,0,.09.1,1.26,1.26,0,0,1,0,.58,3.32,3.32,0,0,0-1.56.87,4.75,4.75,0,0,0-.49.74l-.16.23,0,0c-.33,0-.6-.11-.63-.09s-.17.78-.07.81a3,3,0,0,0,1.74.72,3.84,3.84,0,0,0,1.35-.15c.51-.16.81-.65,1.33-.81a2.23,2.23,0,0,1,1.58.22,2.33,2.33,0,0,1,.41.24.69.69,0,0,0,.36.27l.2.05a1.3,1.3,0,0,0,.78.28,2.12,2.12,0,0,0,.62-.31c.29-.16.6-.28.89-.44a.27.27,0,0,0,.14-.16c.35-.22.7-.46,1.05-.67a.29.29,0,0,0,.14-.21,6.34,6.34,0,0,0,1.44-1.29,4.08,4.08,0,0,1,2.19-1.35,6.56,6.56,0,0,1,1.39-.14,3,3,0,0,1,.52.05,7.54,7.54,0,0,1-.11,1.25c-.07.37-.43.69-.44,1.07s.16.78,0,1.17-.36.86-.54,1.3a.22.22,0,0,0,0,.08,5.75,5.75,0,0,0-.45,1.41,3.63,3.63,0,0,1-.71,1.43,8.13,8.13,0,0,1-1,.81,4,4,0,0,0-1.27,1.92A4,4,0,0,1,19.21,34a3.89,3.89,0,0,1-1.09,1,13.3,13.3,0,0,1-2.65.72,2.27,2.27,0,0,0-.77.36.83.83,0,0,0-.57,1.23,3.25,3.25,0,0,0,.74.69,1.44,1.44,0,0,0,.31.19l.12.12a1.47,1.47,0,0,0,.68.32h0c.11,0,.25.16.36.21a2.36,2.36,0,0,0,.59.11l.84.14a1.55,1.55,0,0,0,.48,0,.26.26,0,0,0,.23,0l.25-.08h0a7,7,0,0,1,.78-.13,6.84,6.84,0,0,0,1.4-.42c.83-.29,1.62-.63,2.43-1a9.72,9.72,0,0,0,2.18-1.16c.77-.61,1.37-1.4,2.17-2,.64-.47,1.37-.79,2-1.31a13.31,13.31,0,0,0,1.55-2.09c.43-.56,1.18-.66,1.45-1.38a5.27,5.27,0,0,1,.38-1.14,4.8,4.8,0,0,1,.51-.59.27.27,0,0,0,.13-.16,1.43,1.43,0,0,0,.14-.2.35.35,0,0,0,0-.13l.17-.17a.49.49,0,0,1,.74-.11.26.26,0,0,0,.1.23l.16.14a.28.28,0,0,0,.08.26l.54.54L51.21,2.53C50.08,2.68,49,2.82,47.84,3.05Z"/>
    <path class="cls-2" d="M73.11,28.07a.25.25,0,0,0-.13-.19c0-.22,0-.51,0-.68,0-.42-.06-.85-.11-1.27-.07-.7-.14-1.4-.22-2.1s-.19-1.35-.33-2a14.68,14.68,0,0,0-.77-2.35,8.63,8.63,0,0,1-.32-2.26c0-.75-.08-1.49-.15-2.23s-.07-1.43-.19-2.13a5.68,5.68,0,0,0-1.06-2h0a.3.3,0,0,0-.16-.22,20.09,20.09,0,0,0-1.92-2.39,35,35,0,0,0-2.94-2.5,8.82,8.82,0,0,0-2.87-1.6c-1.15-.39-2.24-.9-3.39-1.25a13.86,13.86,0,0,0-3.86-.56L37.75,30.35c.06.07.12.13.17.2a16.22,16.22,0,0,1,1.39,1.82c.16.26.5,1,0,1.19-.28.12-.57.2-.85.31a6.41,6.41,0,0,0-2.28,1,2.43,2.43,0,0,0-.57.23A.67.67,0,0,0,35,36a1.58,1.58,0,0,0,1.36.81,4.24,4.24,0,0,0,1.45.25,5,5,0,0,0,1.54-.27l.49-.06a.29.29,0,0,0,.19-.09,4.87,4.87,0,0,0,.89-.29l0,0a.26.26,0,0,0,.14-.07c.44-.25.85-.59,1.29-.84a15.54,15.54,0,0,0,1.4-.87l.09-.06a.25.25,0,0,0,.14-.06l0,0a1.14,1.14,0,0,0,.5-.39.33.33,0,0,0,0-.19,4,4,0,0,0,.59-1.2,4.93,4.93,0,0,0,.05-1.33,3.6,3.6,0,0,0,0-.66c0-.21-.19-.38-.22-.59s-.29-.63-.35-1a5,5,0,0,0-.46-1.31,12,12,0,0,0-.46-1.23.82.82,0,0,1-.11-.3.3.3,0,0,0,0-.19c-.06-.21.64-.45.75-.49A5.23,5.23,0,0,1,46,25.43c1,0,2.25-.08,3,.66s.49,1.79.55,2.62c.06,1-.05,2.05,0,3.08a3,3,0,0,1-.65,2.61c-.71.75-1.72.52-2.64.59a1.87,1.87,0,0,0-1,.39.26.26,0,0,0-.29.08l-.16.18a.26.26,0,0,0-.15.19h0a.79.79,0,0,0-.13.26c-.12.33,0,.64.44,1a3.16,3.16,0,0,0,1.48.48.31.31,0,0,0,.27.2,28.85,28.85,0,0,0,4-.12c1.34-.1,2.63.06,3.78-.76a3.6,3.6,0,0,0,1-1.23c.34-.59.82-1,1.17-1.62a15.12,15.12,0,0,1,1.32-1.56c.38-.48.79-.93,1.14-1.43a.3.3,0,0,0,.14-.36c.19-.21.41-.44.48-.54a7.67,7.67,0,0,1,1-1.1c.43-.37,1.28-.81,1.81-.4a2,2,0,0,1,.39.6,5,5,0,0,0,.44.59,8.21,8.21,0,0,0,2,2.16c.95.53,2.21.46,3.24.73a3,3,0,0,1,1.4.9c.44.45.38.89.07,1.15-.7.06-1.43,0-2.13,0a.25.25,0,0,0-.18.07,1.2,1.2,0,0,0-.89.54,1.21,1.21,0,0,0,.51,1.8,2.67,2.67,0,0,0,1.46.37l.09,0a4.2,4.2,0,0,0,1.73-.06c.65-.14,1.31-.25,1.94-.44A4.21,4.21,0,0,0,75.26,35a3.43,3.43,0,0,0-.41-3.14A14.39,14.39,0,0,1,73.11,28.07ZM37.2,34.93v0h0A.08.08,0,0,0,37.2,34.93Z"/>
    <path class="cls-3" d="M37.2,34.93a.08.08,0,0,1,0,0h0Z"/>
    <path class="cls-4" d="M37.2,34.93a.08.08,0,0,1,0,0h0Z"/>
    <path class="cls-5" d="M51.63,2.47l-.42.06L35.72,28.23c.52.53,1.06,1.06,1.57,1.6a2.31,2.31,0,0,0,.2.24.18.18,0,0,0,.08.07l.18.21L54.67,2.28A18.33,18.33,0,0,0,51.63,2.47Z"/>
  </g>
</svg>
