<svg id="Layer_1" data-name="Layer 1" xmlns="http://www.w3.org/2000/svg" viewBox="0 0 80 40">
  <defs>
    <style>
      .cls-1 {
        fill: #2196f3;
      }

      .cls-2 {
        fill: #f44336;
      }
    </style>
  </defs>
  <title>image_divider_icons</title>
  <g>
    <g>
      <polygon class="cls-1" points="29.76 14.66 29.76 16.13 30.54 16.13 30.54 14.76 30.54 8.06 39.94 8.06 39.2 6.96 30.54 6.96 29.76 6.96 29.76 8.06 29.76 14.66"/>
      <polygon class="cls-1" points="28.59 5.62 28.59 4.42 27.75 4.42 27.75 5.62 27.75 6.03 28.59 6.03 28.59 5.62"/>
      <rect class="cls-1" x="38.08" y="9.84" width="0.84" height="1.6"/>
      <polygon class="cls-1" points="28.68 3 29.25 3 28.73 2.21 23.86 2.21 23.34 3.04 28.68 3.04 28.68 3"/>
      <path class="cls-1" d="M20.15,8.66,20,8.88l-.82-.52c.12,1.36.17,2.52.17,2.83a1.55,1.55,0,0,1-1.29,1.52v.41l2.08.28Z"/>
      <polygon class="cls-1" points="22.98 6.96 21.22 6.96 20.53 8.06 22.98 8.06 22.98 6.96"/>
      <polygon class="cls-1" points="26.85 6.03 26.85 5.62 26.85 4.42 26.01 4.42 26.01 5.62 26.01 6.03 26.85 6.03"/>
      <path class="cls-1" d="M3.52,22.21A16.4,16.4,0,0,0,5.73,26l9,1.19,5,.66a31,31,0,0,1,4.31-3l-6.32-.83Z"/>
      <path class="cls-1" d="M8,28.58a30.53,30.53,0,0,0,6.27,4.51l.35,0c.23-.3.43-.62.67-.91a31.79,31.79,0,0,1,2.24-2.4l-4.33-.57Z"/>
      <path class="cls-1" d="M47.62,17.49a1.72,1.72,0,0,0,.1-.52,1.63,1.63,0,0,0-1.63-1.63h0a2.23,2.23,0,0,0-4.43.42,2.54,2.54,0,0,0,.09.48l-1.37-.18V8.73l.08.12,1.11-.74L39.92,5.62H29.76V3.76L30,4.1l.55-.37.56-.36L29.45.88H23.13L21.52,3.42l1.13.72L23,3.61v2H20.49L19.13,7.78c-.23-2.33-.65-5-1.34-5-1.16,0-1.58,7.51-1.58,8.38a1.55,1.55,0,0,0,1.23,1.51V13l-3.32-.44v-.46a1.54,1.54,0,0,0,1.25-1.51c0-.87-.41-8.39-1.58-8.39s-1.57,7.52-1.57,8.39a1.54,1.54,0,0,0,1.27,1.51v.38l-2.26-.3a1.92,1.92,0,0,0,.19-.8A1.85,1.85,0,0,0,9.56,9.57a1.83,1.83,0,0,0-1.51.83,1.39,1.39,0,0,0-1-.39,1.42,1.42,0,0,0-1.24.77,1,1,0,0,0-1.73.51l-1.69-.22V14.4l25.92,3.41,6.76.89c2.15.28,4.4.62,6.7,1.15l1.48.38,8.43-1.11A30.84,30.84,0,0,0,47.62,17.49Z"/>
      <path class="cls-1" d="M24.34,19.52,2.42,16.64V17a13.36,13.36,0,0,0,.35,2.89l17.31,2.27,7.77,1a30.52,30.52,0,0,1,6.83-1.8h0l.21,0,.25,0,1.31-.17-1.64-.23Z"/>
    </g>
    <g>
      <path class="cls-2" d="M76.13,18.74a1.65,1.65,0,0,0-.53-1.18,1.72,1.72,0,0,0-1.16-.46,1.7,1.7,0,0,0-1.71,1.7,2.2,2.2,0,0,0,.07.37l-2.18.29v-1a2.44,2.44,0,0,0,2.18-2.09,2.09,2.09,0,0,0,.07-.36c0-1.38-.66-13.32-2.51-13.32S67.85,14.61,67.85,16A2.47,2.47,0,0,0,70,18.42v1.12l-2.53.34a1.43,1.43,0,0,0-1.26-.79,1.45,1.45,0,0,0-.93.36,3.43,3.43,0,0,0-.09-.44,2.45,2.45,0,0,0,1.14-1.81,2.16,2.16,0,0,0,0-.27c0-1.38-.66-13.32-2.5-13.32s-2.51,11.92-2.51,13.32a2.93,2.93,0,0,0-1.49,1.12,2.78,2.78,0,0,0-.46,1,2.1,2.1,0,0,0-1.27-.46A2.16,2.16,0,0,0,56,20.77a2.06,2.06,0,0,0,.12.6l-.44.06-.9.11a1.39,1.39,0,0,0-1.37-1.2A1.41,1.41,0,0,0,52,21.74a1,1,0,0,0,0,.17l-3,.39-4.51.6-3.56.47-3.81.5-.25,0-.21,0h0c-.49.07-.95.2-1.44.29A31.85,31.85,0,0,0,30,25.69a30.63,30.63,0,0,0-5.5,2.81,30.25,30.25,0,0,0-2.64,1.89,30.61,30.61,0,0,0-3,2.78c-.15.15-.3.3-.44.46-.31.34-.65.66-.94,1,1.27.57,2.61,1.09,4,1.56.63-.65,1.3-1.28,2-1.9.44-.38.87-.77,1.36-1.13a29.78,29.78,0,0,1,3-2,35.25,35.25,0,0,1,3.48-1.72c.91-.39,1.82-.77,2.84-1.11a36.44,36.44,0,0,1,4.36-1.14c.51-.11,1-.22,1.54-.31,1-.18,2.06-.34,3.07-.48l1.1-.15,6-.79L53.67,25l5.59-.74,16.33-2.15L76.74,22a13.7,13.7,0,0,0,.84-3.18v-.26Z"/>
      <path class="cls-2" d="M56.12,27l-3,.39-6.21.82-2.38.31-1.65.23c-1.12.16-2.25.35-3.4.57a40.4,40.4,0,0,0-4.1,1c-.17.05-.34.09-.51.15a32.41,32.41,0,0,0-3.3,1.3,27.29,27.29,0,0,0-2.7,1.41,27.37,27.37,0,0,0-4.68,3.46l-.35.3c1.57.44,3.18.84,4.87,1.15.32-.24.69-.47,1-.71a32.9,32.9,0,0,1,2.95-1.78,35.46,35.46,0,0,1,5.06-2.21l.29-.11.35-.1.14,0q1.38-.43,2.73-.75a65.71,65.71,0,0,1,6.49-1.14l.36,0L51,30.8l5.21-.68L59,29.76l4.55-.6,9.27-1.22a19.38,19.38,0,0,0,2.77-3.55L61.22,26.28Z"/>
      <path class="cls-2" d="M60.55,31.79,58,32.13l-4.73.62-3,.39-.23,0-1.69.22c-1.31.17-2.65.37-4,.61-1.12.2-2.25.43-3.4.72-.74.2-1.5.41-2.25.66-.3.1-.56.23-.85.33-.57.21-1.11.42-1.64.65a32.63,32.63,0,0,0-3.19,1.55l-.48.26-.07,0-.59.37c1.83.24,3.72.39,5.63.46.85,0,1.68.08,2.54.08h.11c.47-.18.89-.38,1.39-.55l.53-.15.85-.25c.89-.26,1.77-.48,2.64-.67s1.92-.39,2.86-.54,2.15-.33,3.18-.47l1.84-.24,2.58-.34,4.21-.55,1.18-.16,1-.46c1.12-.49,2.2-1,3.22-1.57l.13-.07a32.81,32.81,0,0,0,3.91-2.52l-4.92.65Z"/>
    </g>
  </g>
</svg>
